<svg enable-background="new 0 0 64 64" height="64" viewBox="0 0 64 64" width="64" xmlns="http://www.w3.org/2000/svg">
  <g fill="#008bc5">
    <path d="m12.235 47.126h39.002c3.319 0 6.019-2.696 6.019-6.01v-23.267c0-3.313-2.699-6.009-6.019-6.009h-39.002c-3.318 0-6.019 2.696-6.019 6.009v23.267c.001 3.314 2.701 6.01 6.019 6.01zm-2.006-29.277c0-1.105.899-2.003 2.006-2.003h39.002c1.106 0 2.006.898 2.006 2.003v23.267c0 1.105-.899 2.003-2.006 2.003h-39.002c-1.106 0-2.006-.898-2.006-2.003z"/>
    <path d="m0 50.735v6.632c0 3.657 3.271 6.633 7.288 6.633h49.422c4.02 0 7.29-2.976 7.29-6.633v-6.632zm59.987 6.632c0 1.449-1.472 2.627-3.277 2.627h-49.422c-1.806 0-3.275-1.178-3.275-2.627v-2.625h55.975v2.625z"/>
  </g>
</svg>
