<svg viewBox="0 0 1047 1063.274" width="64" height="64" xmlns="http://www.w3.org/2000/svg">
  <path d="M11.378 21.333h1028.55v373.19H11.38zM971.662 89.6H79.644v236.658h892.018zM11.378 326.257h1028.55v373.19H11.38zm960.284 68.267H79.644v236.658h892.018zM425.53 228.41H357.26v-86.472h68.267zm0 304.923H357.26v-86.47h68.267zM252.586 228.41H184.32v-86.472h68.267zm0 304.923H184.32v-86.47h68.267zm794.17 430.08H609.848v-68.267h436.906zm-609.85 0H0v-68.267h436.907zm-34.134-159.29h241.21v241.21h-241.21zm172.943 68.268H471.04v104.677h104.676zm-18.205-34.133h-68.266V665.315h68.267zm316.303-616.675H696.32v-68.267h177.493zm0 304.924H696.32V458.24h177.493z" fill="#008bc5" stroke="#008bc5"/>
</svg>
