<svg height="64" viewBox="0 0 32 32" width="64" xmlns="http://www.w3.org/2000/svg">
  <path d="m28.373 4.515c-.371-.346-.859-.538-1.364-.538-.046 0-.092.002-.137.005-.029.002-.35.022-.852.022-.833 0-2.459-.057-3.999-.436-1.989-.489-4.285-2.755-4.953-3.202-.336-.225-.724-.337-1.111-.337-.386 0-.774.112-1.111.336-.081.054-2.485 2.626-4.836 3.203-1.539.379-3.197.436-4.029.436-.503 0-.824-.019-.856-.022-.044-.003-.088-.005-.132-.005-.506 0-.996.193-1.368.54-.405.378-.635.907-.635 1.46v5.001c0 18.488 12.098 20.869 12.611 20.962.117.02.236.032.354.032s.238-.011.354-.032c.514-.093 12.7-2.473 12.7-20.962v-5.001c.001-.554-.23-1.084-.635-1.462zm-1.363 6.463c0 17.029-11.054 18.993-11.054 18.993s-10.965-1.965-10.965-18.993v-5.001s.378.027.99.027c1.049 0 2.813-.077 4.505-.493 2.77-.679 5.47-3.482 5.47-3.482s2.82 2.802 5.587 3.482c1.694.416 3.428.493 4.477.493.611 0 .99-.027.99-.027s0 .636 0 5.001zm-6.773-.158c-.39-.39-1.024-.39-1.414 0l-2.829 2.829-2.829-2.829c-.39-.39-1.024-.39-1.415 0s-.39 1.024 0 1.414l2.829 2.829-2.829 2.829c-.39.39-.39 1.024 0 1.414s1.024.39 1.415 0l2.829-2.829 2.829 2.828c.39.39 1.024.39 1.414 0s.39-1.024 0-1.414l-2.829-2.829 2.828-2.829c.39-.39.39-1.024 0-1.414z" fill="#008bc5" stroke="#008bc5"/>
</svg>
