
<svg enable-background="new 0 0 24 24" height="24" viewBox="0 0 24 24" width="24" xmlns="http://www.w3.org/2000/svg">
<path d="m0 0h24v24h-24z" fill="none"/>
<path d="m12 2c-5.52 0-10 4.48-10 10s4.48 10 10 10 10-4.48 10-10-4.48-10-10-10zm7.46 7.12-2.78 1.15c-.51-1.36-1.58-2.44-2.95-2.94l1.15-2.78c2.1.8 3.77 2.47 4.58 4.57zm-7.46 5.88c-1.66 0-3-1.34-3-3s1.34-3 3-3 3 1.34 3 3-1.34 3-3 3zm-2.87-10.46 1.17 2.78c-1.38.5-2.47 1.59-2.98 2.97l-2.78-1.16c.81-2.11 2.48-3.78 4.59-4.59zm-4.59 10.33 2.78-1.15c.51 1.38 1.59 2.46 2.97 2.96l-1.17 2.78c-2.1-.81-3.77-2.48-4.58-4.59zm10.34 4.59-1.15-2.78c1.37-.51 2.45-1.59 2.95-2.97l2.78 1.17c-.81 2.1-2.48 3.77-4.58 4.58z" fill="#008BC5"/></svg>